# xmcd
#
# Track frame offsets:
#	150
#	23359
#	46161
#	65845
#	83162
#	101619
#	141391
#	163807
#	182147
#	202514
#
# Disc length: 3005 seconds
#
# Revision: 2
# Processed by: cddbd v1.5.2PL0 Copyright (c) Steve Scherf et al.
# Submitted via: EasyCDDAExtractor 16.0.9.1
#
DISCID=7e0bbb0a
DTITLE=Various Artist - TNCD529: Bông Cỏ May
DYEAR=2013
DGENRE=Country
TTITLE0=Như Quỳnh - Giọng Ca Dĩ Vãng (Bảo Thu)
TTITLE1=Quang Lê - Đường Xưa Lối Cũ (Hoàng Thi Thơ)
TTITLE2=Mai Thiên Vân - Nhật Ký Đời Tôi (Thanh Sơn)
TTITLE3=Giang Tử - Bông Cỏ May (Trúc Phương)
TTITLE4=Hương Thủy - Hình Ảnh Người Em Không Đợi (Hoàng Thi Thơ - Tôn Nữ Trà M
TTITLE4=i)
TTITLE5=Mai Thiên Vân and Duy Trường - Tân Cổ Hoa Mười Giờ (Đài Phương Trang - N
TTITLE5=gọc Sơn)
TTITLE6=Quang Lê - Đừng Nói Với Anh (Hoàng Thi Thơ)
TTITLE7=Hạ Vy - Hoài Thu (Văn Trí)
TTITLE8=Mai Thiên Vân - Một Phút Suy Tư (Vân Tùng)
TTITLE9=Khánh Lâm - Đêm Bơ Vơ (Duy Khánh)
EXTD=
EXTT0=
EXTT1=
EXTT2=
EXTT3=
EXTT4=
EXTT5=
EXTT6=
EXTT7=
EXTT8=
EXTT9=
PLAYORDER=
